<?xml version="1.0" encoding="UTF-8" standalone="no"?>
<svg
   xmlns:dc="http://purl.org/dc/elements/1.1/"
   xmlns:cc="http://creativecommons.org/ns#"
   xmlns:rdf="http://www.w3.org/1999/02/22-rdf-syntax-ns#"
   xmlns:svg="http://www.w3.org/2000/svg"
   xmlns="http://www.w3.org/2000/svg"
   viewBox="0 0 1122.52 793.70667"
   height="793.70667"
   width="1122.52"
   xml:space="preserve"
   id="svg4347"
   version="1.1"><metadata
     id="metadata4353"><rdf:RDF><cc:Work
         rdf:about=""><dc:format>image/svg+xml</dc:format><dc:type
           rdf:resource="http://purl.org/dc/dcmitype/StillImage" /><dc:title></dc:title></cc:Work></rdf:RDF></metadata><defs
     id="defs4351"><clipPath
       id="clipPath4373"
       clipPathUnits="userSpaceOnUse"><path
         id="path4371"
         d="M 0,595.28 H 841.89 V 0 H 0 Z" /></clipPath></defs><g
     transform="matrix(1.3333333,0,0,-1.3333333,0,793.70667)"
     id="g4355"><path
       id="path4357"
       style="fill:#ffffff;fill-opacity:1;fill-rule:nonzero;stroke:none"
       d="m 395.079,63.697 h 9.78 v 44.759 h -9.78 z" /><g
       style="fill:#ffffff"
       transform="translate(414.1274,99.5264)"
       id="g4359"><path
         id="path4361"
         style="fill:#ffffff;fill-opacity:1;fill-rule:nonzero;stroke:none"
         d="m 0,0 h 13.664 v -35.829 h 9.779 V 0 H 37.078 V 8.93 H 0 Z" /></g><g
       style="fill:#ffffff"
       transform="translate(477.5664,90.3145)"
       id="g4363"><path
         id="path4365"
         style="fill:#ffffff;fill-opacity:1;fill-rule:nonzero;stroke:none"
         d="M 0,0 -10.799,18.142 H -22.082 L -4.961,-8.76 V -26.617 H 4.934 V -8.76 L 22.025,18.142 H 10.941 Z" /></g><g
       style="fill:#ffffff"
       id="g4367"><g
         style="fill:#ffffff"
         clip-path="url(#clipPath4373)"
         id="g4369"><g
           style="fill:#ffffff"
           transform="translate(367.668,71.7754)"
           id="g4375"><path
             id="path4377"
             style="fill:#ffffff;fill-opacity:1;fill-rule:nonzero;stroke:none"
             d="m 0,0 c -7.852,0 -13.408,5.727 -13.408,14.202 0,8.333 5.443,14.23 13.124,14.23 4.536,0 8.958,-2.438 11.31,-5.16 l 6.322,7.257 c -4.195,4.394 -10.318,6.917 -17.32,6.917 -13.691,0 -23.556,-10.346 -23.556,-23.131 0,-12.755 10.29,-23.613 23.556,-23.102 10.262,0.368 14.315,4.592 17.518,7.795 L 11.423,5.272 C 8.9,2.807 4.734,0 0,0" /></g><g
           style="fill:#ffffff"
           transform="translate(530.291,453.2622)"
           id="g4379"><path
             id="path4381"
             style="fill:#ffffff;fill-opacity:1;fill-rule:nonzero;stroke:none"
             d="m 0,0 7.598,-5.811 21.259,27.751 10.573,-8.079 5.3,6.917 -28.742,22.025 -5.3,-6.945 10.572,-8.107 z" /></g><g
           style="fill:#ffffff"
           transform="translate(368.9434,482.1191)"
           id="g4383"><path
             id="path4385"
             style="fill:#ffffff;fill-opacity:1;fill-rule:nonzero;stroke:none"
             d="M 0,0 C 9.553,3.203 12.161,8.305 14.287,12.188 L 6.803,16.355 C 5.131,13.379 2.013,9.553 -2.438,8.249 c -7.37,-2.183 -14.173,1.644 -16.526,9.609 -2.296,7.824 1.219,14.74 8.362,16.979 5.358,1.673 9.1,0.199 12.048,-1.7 l 3.94,8.56 C 0.227,44.646 -6.208,45.354 -12.813,43.398 -25.625,39.6 -32.032,27.156 -28.488,15.165 -24.973,3.203 -12.274,-4.139 0,0" /></g><g
           style="fill:#ffffff"
           transform="translate(242.2632,391.7505)"
           id="g4387"><path
             id="path4389"
             style="fill:#ffffff;fill-opacity:1;fill-rule:nonzero;stroke:none"
             d="m 0,0 -11.141,20.098 25.654,-13.409 4.337,8.278 -38.806,20.579 -4.763,-9.07 11.367,-19.163 -22.223,-1.587 -4.762,-9.128 38.919,-20.381 4.337,8.306 -25.597,13.379 z" /></g><g
           style="fill:#ffffff"
           transform="translate(312.2505,456.834)"
           id="g4391"><path
             id="path4393"
             style="fill:#ffffff;fill-opacity:1;fill-rule:nonzero;stroke:none"
             d="M 0,0 -14.712,24.35 18.567,11.225 25.257,15.279 2.523,52.895 -5.499,48.047 8.702,24.576 -23.272,37.275 -30.756,32.769 -7.994,-4.847 Z" /></g><g
           style="fill:#ffffff"
           transform="translate(403.8096,489.0068)"
           id="g4395"><path
             id="path4397"
             style="fill:#ffffff;fill-opacity:1;fill-rule:nonzero;stroke:none"
             d="M 0,0 -0.454,17.547 17.546,18 18,0.454 l 9.354,0.227 -1.105,43.596 -9.355,-0.226 0.454,-17.32 -18,-0.454 -0.453,17.32 -9.355,-0.227 1.106,-43.597 z" /></g><g
           style="fill:#ffffff"
           transform="translate(479.1543,488.7236)"
           id="g4399"><path
             id="path4401"
             style="fill:#ffffff;fill-opacity:1;fill-rule:nonzero;stroke:none"
             d="m 0,0 -23.5,5.103 2.041,9.496 16.385,-3.572 4.365,7.54 -18.992,4.11 1.928,8.873 23.13,-5.018 1.815,8.419 -32.258,7.002 -9.326,-42.945 32.654,-7.087 z" /></g><g
           style="fill:#ffffff"
           transform="translate(576.3535,407.1709)"
           id="g4403"><path
             id="path4405"
             style="fill:#ffffff;fill-opacity:1;fill-rule:nonzero;stroke:none"
             d="m 0,0 6.322,5.329 -15.449,18.283 7.398,6.237 10.801,-12.785 8.532,2.778 -13.01,15.364 6.943,5.839 15.252,-18.056 6.576,5.528 -21.289,25.228 -33.562,-28.318 z" /></g><g
           style="fill:#ffffff"
           transform="translate(619.668,387.4702)"
           id="g4407"><path
             id="path4409"
             style="fill:#ffffff;fill-opacity:1;fill-rule:nonzero;stroke:none"
             d="m 0,0 c -3.572,-1.786 -7.115,-0.057 -8.816,3.373 l -4.762,9.524 11.508,5.755 4.82,-9.61 C 4.564,5.386 3.572,1.786 0,0 m 1.219,30.756 -39.033,-19.503 4.195,-8.362 12.557,6.265 3.544,-7.058 -8.39,-14.741 4.988,-9.978 9.297,16.668 c 1.277,-0.907 6.691,-6.888 15.959,-2.438 8.873,4.281 10.008,12.87 6.322,20.268 z" /></g><g
           style="fill:#ffffff"
           transform="translate(257.6265,453.064)"
           id="g4411"><path
             id="path4413"
             style="fill:#ffffff;fill-opacity:1;fill-rule:nonzero;stroke:none"
             d="m 0,0 14.938,-5.811 -8.249,-8.731 z m 14.882,-32.457 -4.479,9.808 12.841,13.607 10.035,-3.913 6.746,7.172 L -5.216,10.913 -11.196,4.592 8.136,-39.6 Z" /></g><g
           style="fill:#ffffff"
           transform="translate(500.3008,469.7314)"
           id="g4415"><path
             id="path4417"
             style="fill:#ffffff;fill-opacity:1;fill-rule:nonzero;stroke:none"
             d="m 0,0 c 2.947,-1.446 6.037,-2.523 9.326,-2.466 4.451,0.028 8.986,1.984 11.367,6.52 1.616,3.033 2.211,5.754 1.616,8.248 -1.418,5.925 -7.881,10.46 -11.877,13.919 -3.176,2.721 -3.203,4.734 -2.58,6.066 1.445,3.146 5.074,2.438 7.341,1.332 3.942,-1.928 7.229,-5.896 8.221,-8.589 l 7.711,4.309 c -2.893,5.215 -6.662,8.872 -12.359,11.65 -7.399,3.628 -16.582,2.296 -19.901,-5.981 -1.332,-3.373 -1.246,-6.52 0.059,-9.213 1.785,-3.713 5.584,-6.718 8.644,-9.326 2.891,-2.494 6.803,-5.045 4.508,-8.73 C 10.488,5.216 6.832,5.868 3.912,7.483 0.283,9.496 -2.354,12.217 -5.018,17.32 l -8.021,-3.6 C -10.006,8.079 -5.811,2.863 0,0" /></g><g
           style="fill:#ffffff"
           transform="translate(186.0239,307.3062)"
           id="g4419"><path
             id="path4421"
             style="fill:#ffffff;fill-opacity:1;fill-rule:nonzero;stroke:none"
             d="m 0,0 0.935,-4.649 4.819,1.248 v -20.693 h 5.357 V 2.41 H 7.427 Z" /></g><g
           style="fill:#ffffff"
           transform="translate(214.228,287.5205)"
           id="g4423"><path
             id="path4425"
             style="fill:#ffffff;fill-opacity:1;fill-rule:nonzero;stroke:none"
             d="m 0,0 c -2.948,0 -4.705,1.474 -4.705,3.288 0,1.786 1.757,3.26 4.705,3.26 2.92,0 4.706,-1.474 4.706,-3.26 C 4.706,1.474 2.92,0 0,0 m 0,17.49 c 2.381,0 3.827,-1.418 3.827,-3.175 0,-1.729 -1.446,-3.175 -3.827,-3.175 -2.409,0 -3.854,1.446 -3.854,3.175 0,1.757 1.445,3.175 3.854,3.175 M 5.868,9.241 c 2.098,1.361 3.232,3.458 3.232,5.811 0,4.053 -3.43,7.342 -9.157,7.342 -5.725,0 -9.156,-3.289 -9.156,-7.342 0,-2.381 1.163,-4.479 3.261,-5.811 -2.722,-1.361 -4.224,-3.685 -4.224,-6.321 0,-4.195 3.798,-7.568 10.176,-7.568 6.35,0 10.148,3.373 10.148,7.568 0,2.636 -1.531,4.988 -4.28,6.321" /></g><g
           style="fill:#ffffff"
           transform="translate(646.7949,293.4453)"
           id="g4427"><path
             id="path4429"
             style="fill:#ffffff;fill-opacity:1;fill-rule:nonzero;stroke:none"
             d="M 0,0 H -7.199 L 0,8.447 Z M 5.387,0 V 16.271 H 0.682 l -14.43,-16.923 0.766,-3.884 H 0 v -5.697 h 5.387 v 5.697 H 9.07 V 0 Z" /></g><g
           style="fill:#ffffff"
           transform="translate(617.7402,296.9316)"
           id="g4431"><path
             id="path4433"
             style="fill:#ffffff;fill-opacity:1;fill-rule:nonzero;stroke:none"
             d="m 0,0 c -2.807,0 -4.479,1.814 -4.479,4.053 0,2.212 1.672,4.026 4.479,4.026 2.777,0 4.451,-1.814 4.451,-4.026 C 4.451,1.814 2.777,0 0,0 m -0.113,12.869 c -5.614,-0.056 -9.809,-3.175 -10.119,-8.816 -0.284,-4.989 3.627,-8.759 8.644,-8.844 1.928,-0.028 4.139,0.511 5.983,1.475 -0.286,-4.252 -2.581,-5.727 -5.301,-5.925 -1.985,-0.142 -4.139,0.652 -5.756,2.352 l -3.033,-4.195 c 5.529,-4.648 14.373,-4.11 17.916,2.013 1.728,3.005 2.636,8.164 1.728,13.408 -0.849,4.96 -4.392,8.617 -10.062,8.532" /></g><g
           style="fill:#ffffff"
           transform="translate(420.9448,43.3721)"
           id="g4435"><path
             id="path4437"
             style="fill:#ffffff;fill-opacity:1;fill-rule:nonzero;stroke:none"
             d="M 0,0 C -140.032,0 -254.268,114.208 -254.268,254.268 -254.268,394.3 -140.032,508.536 0,508.536 140.06,508.536 254.268,394.3 254.268,254.268 254.268,114.208 140.06,0 0,0 m 0,520.214 c -146.467,0 -265.946,-119.48 -265.946,-265.946 0,-146.495 119.479,-265.947 265.946,-265.947 146.495,0 265.947,119.452 265.947,265.947 0,146.466 -119.452,265.946 -265.947,265.946" /></g><g
           style="fill:#ffffff"
           transform="translate(420.9448,25.5137)"
           id="g4439"><path
             id="path4441"
             style="fill:#ffffff;fill-opacity:1;fill-rule:nonzero;stroke:none"
             d="m 0,0 c -149.868,0 -272.126,122.259 -272.126,272.126 0,149.868 122.258,272.126 272.126,272.126 149.868,0 272.125,-122.258 272.125,-272.126 C 272.125,122.259 149.868,0 0,0 m 0,555.591 c -156.133,0 -283.465,-127.332 -283.465,-283.465 0,-156.132 127.332,-283.464 283.465,-283.464 156.132,0 283.464,127.332 283.464,283.464 0,156.133 -127.332,283.465 -283.464,283.465" /></g><g
           style="fill:#ffffff"
           transform="translate(585.7363,297.7817)"
           id="g4443"><path
             id="path4445"
             style="fill:#ffffff;fill-opacity:1;fill-rule:nonzero;stroke:none"
             d="m 0,0 c 0,-69.488 -43.312,-129.167 -104.309,-153.434 31.527,20.184 52.885,47.024 67.827,82.71 16.471,39.315 17.021,104.71 9.503,160.969 C -9.936,64.282 0,33.268 0,0 m -146.375,-163.971 c -6.118,-0.694 -12.332,-1.062 -18.629,-1.062 -6.019,0 -11.961,0.334 -17.816,0.968 -47.858,20.164 -85.312,54.371 -101.694,99.606 -5.982,16.525 -8.618,36.141 -9.837,57.203 -2.257,38.978 1.978,83.401 10.398,121.438 3.002,3.128 6.13,6.133 9.368,9.018 34.659,6.08 73.188,8.838 109.778,8.838 36.338,0 74.393,-2.699 109.241,-8.711 3.638,-3.234 7.136,-6.623 10.478,-10.162 11.47,-51.123 14.623,-119.492 4.893,-163.508 -2.666,-11.962 -8.391,-24.095 -14.118,-34.555 -20.089,-36.625 -55.014,-63.28 -92.062,-79.073 M -330.008,0 c 0,33.668 10.175,65.028 27.595,91.18 -7.621,-57.388 -7.305,-117.995 8.714,-160.43 12.975,-34.301 37.444,-63.665 68.836,-84.511 -61.436,24.053 -105.145,83.957 -105.145,153.761 m 165.004,165.033 c 34.209,0 66.041,-10.506 92.443,-28.454 -30.124,3.549 -61.433,5.182 -91.85,5.182 -30.551,0 -62.074,-1.36 -92.741,-4.977 26.343,17.824 58.068,28.249 92.148,28.249 m 130.846,-34.186 c -6.404,1.177 -12.92,2.241 -19.508,3.217 -30.219,25.059 -68.973,40.153 -111.139,40.153 -42.027,0 -80.668,-15 -110.843,-39.922 -6.792,-1.027 -13.529,-2.163 -20.177,-3.448 -1.343,-6.727 -2.591,-13.584 -3.735,-20.521 -24.779,-30.138 -39.69,-68.673 -39.69,-110.581 0,-88.451 66.407,-161.863 151.888,-172.983 7.351,-2.873 14.916,-5.342 22.668,-7.357 7.081,2.215 13.819,4.583 20.27,7.096 86.551,10.147 154.09,84.043 154.09,173.244 0,41.942 -14.933,80.506 -39.75,110.654 -1.24,7.078 -2.604,13.923 -4.074,20.448" /></g><g
           style="fill:#ffffff"
           transform="translate(376.2593,238.6895)"
           id="g4447"><path
             id="path4449"
             style="fill:#ffffff;fill-opacity:1;fill-rule:nonzero;stroke:none"
             d="m 0,0 1.83,0.601 c 0.826,1.618 1.962,3.085 3.429,4.431 2.224,2.067 5.131,3.038 7.696,3.896 1.795,0.599 3.489,1.166 4.595,1.958 1.65,1.185 2.86,2.748 4.14,4.401 1.325,1.709 2.806,3.604 4.863,5.155 L 7.28,43.615 h -43.738 z" /></g><g
           style="fill:#ffffff"
           transform="translate(535.1016,245.4922)"
           id="g4451"><path
             id="path4453"
             style="fill:#ffffff;fill-opacity:1;fill-rule:nonzero;stroke:none"
             d="m 0,0 c 0.984,3.432 1.818,6.886 2.473,10.337 1.388,7.285 2.466,16.47 3.203,26.476 h -36.227 z" /></g><g
           style="fill:#ffffff"
           transform="translate(394.4355,165.6572)"
           id="g4455"><path
             id="path4457"
             style="fill:#ffffff;fill-opacity:1;fill-rule:nonzero;stroke:none"
             d="m 0,0 c -0.812,-0.247 -1.678,-0.377 -2.546,-0.377 -4.641,0 -8.417,3.667 -8.417,8.174 l 0.05,6.92 c -1.387,1.271 -2.509,2.765 -3.394,4.512 -0.698,1.396 -1.028,2.916 -1.208,4.514 l -77.075,92.904 h -0.312 c 1.134,-15.732 3.175,-32.314 8.419,-46.771 4.592,-12.699 10.913,-23.414 18.34,-33.619 22.224,-30.558 55.531,-50.854 92.722,-63.581 0.071,0.024 0.141,0.05 0.212,0.074 L 3.354,1 Z" /></g><g
           style="fill:#ffffff"
           transform="translate(360.0688,360.3423)"
           id="g4459"><path
             id="path4461"
             style="fill:#ffffff;fill-opacity:1;fill-rule:nonzero;stroke:none"
             d="m 0,0 c -7.455,-11.934 -10.204,-23.641 -8.192,-40.648 -6.463,1.559 -14.371,2.862 -25.455,2.295 C -25.937,-21.175 -13.946,-8.702 0,0 M 45.581,8.136 81.468,20.325 C 80.703,10.885 81.724,5.953 88.894,-3.827 76.933,-4.252 55.588,-5.386 46.885,-16.413 39.94,-7.994 39.771,2.92 45.581,8.136 m 1.049,22.762 15.733,5.442 v 8.306 L 57.714,44.221 C 56.268,44.107 57.26,42.265 55.616,42.18 l -8.362,-0.482 c -0.398,-0.029 -0.511,0.425 -0.142,0.567 l 8.135,2.806 c 0.822,0.283 0.113,1.106 1.134,1.446 l 7.994,2.835 V 36.964 l 13.068,4.394 C 74.326,32.882 76.337,26.447 81.609,20.551 74.919,20.41 67.919,19.928 62.08,18.539 56.409,17.178 49.097,14.343 46.29,9.893 c -4.933,4.224 -5.641,13.323 0.34,21.005 m -59.074,-82.432 -22.649,9.525 0.596,1.474 c 16.256,-5.473 33.829,-8.733 52.299,-10.541 v 8.406 c -4.346,-0.614 -8.605,-1.915 -10.942,-4.498 -7.965,8.249 -8.816,15.987 -4.649,23.584 l 35.49,12.217 C 29.792,-11.537 21.033,-12.642 14.344,-14.683 10.856,-15.732 6.406,-17.319 3.231,-21.345 -1.7,-16.242 -1.7,-6.378 4.252,1.276 L 18.255,6.18 18.283,17.178 13.635,16.753 C 12.189,16.611 13.182,14.797 11.537,14.712 L 3.146,14.23 C 2.778,14.202 2.665,14.655 3.005,14.769 l 8.164,2.806 c 0.822,0.283 0.113,1.106 1.134,1.474 l 7.993,2.835 V 6.832 l 11.509,3.883 c -1.672,-9.269 0.624,-16.186 5.896,-22.082 -0.879,-3.826 -1.19,-9.751 0.198,-15.137 1.304,-5.074 3.6,-10.318 7.625,-16.611 -7.399,1.057 -16.878,1.378 -24.661,0.76 v -9.015 c 13.239,-1.157 26.667,-1.528 40.507,-1.42 v 9.665 c -4.087,-1.04 -7.758,-2.921 -10.147,-6.141 -9.639,9.099 -13.097,20.013 -5.642,30.331 L 88.98,-3.883 c -1.105,-4.706 -1.645,-13.096 0.057,-19.729 1.484,-5.733 6.109,-13.929 10.765,-20.456 l 0.289,68.163 -4.761,-0.426 c -1.446,-0.113 -0.454,-1.956 -2.098,-2.041 l -8.361,-0.482 c -0.399,-0.028 -0.512,0.426 -0.172,0.539 l 8.164,2.807 c 0.822,0.283 0.113,1.105 1.135,1.473 l 7.994,2.835 0.283,-28.431 28.119,9.666 c -4.648,-24.435 0.256,-33.931 6.094,-42.917 l -33.733,-11.792 v -3.775 c 10.823,1.107 20.655,2.586 29.879,4.285 -0.765,-3.458 -2.211,-5.924 -3.658,-7.993 -2.551,-3.629 -5.187,-4.904 -6.008,-7.711 -0.625,-2.041 -0.342,-4.337 2.211,-7.851 h -16.724 c -4.422,1.219 -8.561,2.72 -12.53,3.798 -4.677,1.304 -8.929,1.616 -10.998,1.049 -5.953,-2.268 -11.623,-2.891 -16.951,-2.665 -9.837,0.397 -18.879,3.6 -28.745,3.827 -0.566,-2.891 -7.993,-4.649 -15.476,-4.082 -6.435,0.51 -13.267,3.459 -18.228,2.892 -2.762,-0.316 -4.732,-2.277 -5.796,-4.848 h 181.602 c 0.85,17.461 0.793,36.227 -0.285,51.335 -1.642,23.046 -4.422,48.643 -9.523,69.308 -36.483,6.605 -73.645,9.241 -110.665,9.241 -36.822,0 -74.012,-2.608 -110.325,-9.241 -8.532,-35.972 -11.82,-81.497 -9.723,-120.643 h 58.255 z" /></g><g
           style="fill:#ffffff"
           transform="translate(446.3555,310.5659)"
           id="g4463"><path
             id="path4465"
             style="fill:#ffffff;fill-opacity:1;fill-rule:nonzero;stroke:none"
             d="M 0,0 C 4.676,0.278 9.162,0.628 13.496,1.036 L 13.51,4.317 C 4.627,6.382 -10.051,8.462 -19.416,7.569 -20.205,7.496 -20.99,7.401 -21.77,7.283 V -2.985 c 4.665,0.06 9.374,0.168 14.145,0.32 z" /></g><g
           style="fill:#ffffff"
           transform="translate(438.0215,193.4668)"
           id="g4467"><path
             id="path4469"
             style="fill:#ffffff;fill-opacity:1;fill-rule:nonzero;stroke:none"
             d="m 0,0 c 3.799,-0.737 5.869,0.057 7.201,2.183 1.729,2.75 0.453,7.143 1.529,10.261 1.219,3.515 4.622,5.301 4.821,9.099 0.113,2.41 -1.844,4.593 -4.451,5.613 7.398,4.167 12.869,0.737 13.664,-3.629 C 23.812,17.604 19.588,16.838 17.15,10.771 14.656,4.507 17.803,-0.822 13.408,-5.103 9.949,-8.504 3.572,-7.682 0,0 m -1.275,-15.761 c -5.272,-2.805 -7.825,0.851 -14.315,1.276 -6.746,0.454 -10.432,-4.138 -15.704,-1.587 -4.337,2.126 -6.378,8.73 0.198,14.4 0.454,-3.855 2.097,-5.585 4.564,-6.18 3.147,-0.794 6.86,2.013 10.149,1.956 3.713,-0.057 6.66,-2.75 10.317,-1.757 2.326,0.623 3.884,3.005 4.025,5.782 6.322,-5.273 4.707,-11.792 0.766,-13.89 m -45.184,10.347 c -4.309,4.167 -1.474,7.427 -3.062,13.748 -1.673,6.548 -7.342,8.9 -6.52,14.712 0.681,4.79 6.52,8.192 14.003,4.025 -3.514,-1.616 -4.648,-3.43 -4.478,-5.953 0.198,-3.231 3.826,-6.038 4.79,-9.184 1.077,-3.543 -0.482,-7.2 1.588,-10.403 1.332,-2.012 4.138,-2.382 6.831,-1.673 -3.543,-7.71 -9.949,-8.362 -13.152,-5.272 m 8.815,-10.063 -6.973,-2.069 v 7.199 c 2.834,0.057 5.074,0.908 7.001,2.354 -0.679,-2.24 -0.764,-4.593 -0.028,-7.484 m -24.321,50.598 6.86,2.239 c 0.936,-2.692 2.409,-4.563 4.394,-5.952 -2.325,-0.028 -4.592,-0.68 -7.116,-2.267 z m 11.452,5.585 c 2.637,5.386 6.774,3.798 12.274,7.284 5.726,3.601 6.35,9.496 12.132,10.517 4.763,0.85 9.724,-3.571 8.107,-11.877 -2.636,2.835 -4.791,3.401 -7.143,2.466 -3.005,-1.219 -4.535,-5.528 -7.229,-7.399 -3.061,-2.154 -7.029,-1.757 -9.411,-4.733 -1.502,-1.871 -1.218,-4.819 0.313,-7.144 -8.447,0.964 -10.999,6.889 -9.043,10.886 m 33.93,27.382 4.224,-5.811 c -2.268,-1.729 -3.571,-3.714 -4.28,-6.009 -0.766,2.182 -2.069,4.138 -4.365,6.066 z m 4.962,-52.299 c 1.133,1.19 1.814,2.807 1.814,4.592 0,0.284 -0.029,0.567 -0.056,0.85 l 13.691,4.422 c 3.203,1.021 6.35,-0.793 6.576,-3.939 C 10.658,18.511 7.738,16.753 6.35,13.153 5.047,9.723 6.576,6.35 4.764,3.884 2.58,0.936 -1.133,1.36 -3.146,4.139 Z m -16.357,-13.067 8.419,11.593 c 0.907,-0.454 1.899,-0.709 2.976,-0.709 1.02,0 2.013,0.227 2.892,0.653 L -5.074,2.58 c 1.984,-2.665 0.908,-6.265 -2.012,-7.455 -2.977,-1.22 -5.443,1.077 -9.327,1.275 -3.656,0.17 -6.179,-2.324 -9.07,-1.361 -3.487,1.163 -4.508,4.933 -2.495,7.683 m -8.872,22.875 13.55,-4.394 c -0.029,-0.255 -0.057,-0.538 -0.057,-0.822 0,-1.785 0.708,-3.43 1.842,-4.62 L -29.962,3.94 c -1.927,-2.721 -5.839,-2.778 -7.852,-0.369 -2.069,2.439 -0.652,5.5 -1.644,9.242 -0.963,3.543 -4.195,5.159 -4.167,8.22 0.029,3.656 3.515,5.613 6.775,4.564 m 18.964,1.446 c -1.985,-0.397 -3.686,-1.673 -4.62,-3.402 l -13.863,4.366 c -3.174,1.02 -4.506,4.478 -2.834,7.171 1.701,2.721 5.131,2.41 8.363,4.508 3.09,2.011 3.656,5.527 6.576,6.462 3.486,1.106 6.378,-1.446 6.378,-4.876 z m 2.495,14.513 c -0.029,3.344 2.834,5.67 5.868,4.904 3.117,-0.766 3.882,-4.11 6.888,-6.548 2.862,-2.324 6.746,-1.814 8.418,-4.365 1.928,-3.005 0.539,-6.406 -2.72,-7.455 l -13.721,-4.423 c -0.963,1.701 -2.608,2.977 -4.592,3.346 z m 3.231,-21.175 c 0,-2.438 -1.985,-4.422 -4.423,-4.422 -2.437,0 -4.421,1.984 -4.421,4.422 0,2.467 1.984,4.451 4.421,4.451 2.438,0 4.423,-1.984 4.423,-4.451 m 4.478,38.239 c 5.953,-0.821 5.641,-4.932 10.659,-9.127 5.187,-4.308 11.197,-3.146 13.947,-8.305 2.267,-4.281 0.084,-10.121 -8.817,-11.339 1.899,3.401 1.588,5.613 -0.027,7.54 -2.07,2.495 -6.662,2.636 -9.269,4.621 -2.977,2.239 -3.799,5.98 -7.372,7.342 -2.238,0.85 -4.818,-0.398 -6.576,-2.552 -1.672,8.334 3.063,12.444 7.455,11.82 m 29.141,-21.145 6.832,-2.439 -4.225,-5.81 c -2.324,1.615 -4.621,2.239 -7.029,2.211 1.871,1.388 3.317,3.259 4.422,6.038 m -10.318,-55.021 -6.86,2.239 c 0.823,2.721 0.709,5.102 -0.056,7.37 1.898,-1.333 4.109,-2.126 7.086,-2.325 z M 3.6,-20.211 c 0.312,-0.283 0.425,-0.396 0.822,-0.51 l 7.314,-2.438 c 1.985,-0.652 4.196,0.935 4.28,3.345 l 0.255,7.483 c 0,0.511 -0.029,0.794 -0.283,1.22 l -0.17,0.368 c 2.494,1.332 3.799,3.061 4.536,5.017 1.558,4.167 0.113,8.759 1.927,13.975 1.615,4.62 5.215,6.944 6.264,11.026 0.482,1.871 0.396,4.678 -0.963,7.059 l 0.283,0.085 c 0.483,0.17 0.653,0.255 0.963,0.681 l 4.565,6.321 c 1.418,1.956 0.652,4.535 -1.332,5.187 l -7.682,2.523 c -0.453,0.141 -0.795,0.198 -1.275,0.113 l -0.399,-0.056 c -0.34,1.757 -1.105,4.053 -3.457,6.009 -3.516,2.948 -7.994,2.409 -12.785,6.066 -4.619,3.515 -5.215,7.341 -8.645,9.326 -2.07,1.19 -4.763,1.418 -6.888,1.275 v 0.794 c 0,0.483 -0.057,0.907 -0.313,1.304 l -4.592,6.35 c -1.218,1.701 -4.053,1.927 -5.527,0.028 l -4.677,-6.122 c -0.312,-0.426 -0.312,-0.681 -0.368,-1.22 l -0.114,-1.474 c -3.033,0.596 -5.301,-0.396 -6.662,-1.247 -3.911,-2.352 -5.442,-6.973 -9.977,-10.233 -3.601,-2.579 -9.043,-2.891 -11.821,-5.471 -1.757,-1.615 -2.75,-3.344 -3.203,-5.414 l -0.595,0.085 c -0.482,0.085 -0.823,0.028 -1.276,-0.113 l -7.681,-2.523 c -1.985,-0.652 -2.75,-3.231 -1.333,-5.187 l 4.564,-6.321 c 0.312,-0.426 0.481,-0.511 0.964,-0.681 l 0.651,-0.198 c -0.765,-1.673 -1.558,-4.479 -0.907,-7.002 1.105,-4.422 4.989,-7.058 6.747,-12.359 1.389,-4.195 0.312,-10.29 1.757,-13.181 1.077,-2.126 2.523,-3.515 4.393,-4.592 l -0.226,-0.454 c -0.17,-0.368 -0.227,-0.51 -0.227,-0.936 l -0.056,-7.71 c 0,-2.097 2.211,-3.713 4.535,-3.005 l 7.228,2.155 c 0.483,0.142 0.738,0.284 1.078,0.652 l 0.396,0.425 c 7.059,-6.235 11.651,-0.51 20.382,-0.51 6.973,0.028 12.303,-5.84 19.162,0.681 z" /></g><g
           style="fill:#ffffff"
           transform="translate(555.709,224.3525)"
           id="g4471"><path
             id="path4473"
             style="fill:#ffffff;fill-opacity:1;fill-rule:nonzero;stroke:none"
             d="m 0,0 c -4.711,-11.254 -10.074,-21.637 -16.139,-31.237 24.678,27.943 39.703,64.6 39.703,104.666 0,19.464 -3.544,38.124 -10.017,55.373 C 16.701,80.862 13.397,31.975 0,0" /></g><g
           style="fill:#ffffff"
           transform="translate(271.4946,322.9551)"
           id="g4475"><path
             id="path4477"
             style="fill:#ffffff;fill-opacity:1;fill-rule:nonzero;stroke:none"
             d="M 0,0 C 0.071,9.811 0.476,19.939 1.183,30.27 -5.31,13 -8.879,-5.681 -8.879,-25.173 c 0,-39.961 14.932,-76.543 39.497,-104.46 -6.722,10.394 -12.321,21.362 -16.623,32.733 C 4.425,-71.548 -0.283,-38.947 0,0" /></g><g
           style="fill:#ffffff"
           transform="translate(480.5205,444.4585)"
           id="g4479"><path
             id="path4481"
             style="fill:#ffffff;fill-opacity:1;fill-rule:nonzero;stroke:none"
             d="m 0,0 c -18.403,7.523 -38.509,11.695 -59.562,11.695 -20.929,0 -40.926,-4.105 -59.239,-11.539 18.861,1.277 38.749,1.928 59.606,1.928 C -39.087,2.084 -19.229,1.375 0,0" /></g><g
           style="fill:#ffffff"
           transform="translate(463.0566,185.9883)"
           id="g4483"><path
             id="path4485"
             style="fill:#ffffff;fill-opacity:1;fill-rule:nonzero;stroke:none"
             d="m 0,0 c -0.818,-2.176 -2.086,-4.03 -3.785,-5.546 l -0.236,-6.96 c -0.166,-4.669 -3.837,-8.321 -8.361,-8.321 -0.843,0 -1.676,0.133 -2.477,0.395 l -6.67,2.225 c -1.448,-0.87 -2.953,-1.45 -4.53,-1.755 l 13.116,-15.689 c 10.14,5.009 19.822,10.761 28.812,17.279 L 0.169,0.505 C 0.113,0.337 0.063,0.169 0,0" /></g><g
           style="fill:#ffffff"
           transform="translate(464.9512,282.3047)"
           id="g4487"><path
             id="path4489"
             style="fill:#ffffff;fill-opacity:1;fill-rule:nonzero;stroke:none"
             d="m 0,0 h -44.135 l 19.537,-23.37 c 1.463,-1.276 2.483,-2.711 3.407,-4.026 0.072,-0.104 0.145,-0.207 0.218,-0.31 l 2.57,-3.074 c 0.298,-0.276 0.612,-0.548 0.965,-0.817 1.804,-1.377 3.569,-1.94 5.611,-2.592 2.304,-0.737 4.913,-1.571 7.358,-3.621 1.799,-1.496 3.147,-3.261 4.062,-5.338 l 7.097,-2.331 c 2.435,-0.8 4.29,-2.68 5.093,-5.158 0.834,-2.579 0.36,-5.463 -1.27,-7.714 l -2.72,-3.765 28.117,-33.633 c 7.994,8.275 14.99,17.422 20.746,27.445 z" /></g></g></g></g></svg>